<?xml version="1.0" encoding="UTF-8" standalone="no"?>
<svg
   id="Layer_1"
   width="300"
   height="126.04884"
   version="1.1"
   viewBox="0 0 300 126.04884"
   sodipodi:docname="BPI_Logo_Trademarked.svg"
   inkscape:version="1.4.2 (f4327f4, 2025-05-13)"
   xmlns:inkscape="http://www.inkscape.org/namespaces/inkscape"
   xmlns:sodipodi="http://sodipodi.sourceforge.net/DTD/sodipodi-0.dtd"
   xmlns="http://www.w3.org/2000/svg"
   xmlns:svg="http://www.w3.org/2000/svg">
  <sodipodi:namedview
     id="namedview6"
     pagecolor="#ffffff"
     bordercolor="#000000"
     borderopacity="0.25"
     inkscape:showpageshadow="2"
     inkscape:pageopacity="0.0"
     inkscape:pagecheckerboard="0"
     inkscape:deskcolor="#d1d1d1"
     inkscape:zoom="0.53149132"
     inkscape:cx="413.92962"
     inkscape:cy="174.03859"
     inkscape:window-width="1920"
     inkscape:window-height="1094"
     inkscape:window-x="-11"
     inkscape:window-y="-11"
     inkscape:window-maximized="1"
     inkscape:current-layer="Layer_1" />
  <!-- Generator: Adobe Illustrator 29.4.0, SVG Export Plug-In . SVG Version: 2.1.0 Build 152)  -->
  <defs
     id="defs1">
    <style
       id="style1">
      .st0 {
        fill: #b11116;
      }

      .st1 {
        fill: #dcb91c;
        fill-rule: evenodd;
      }
    </style>
  </defs>
  <g
     id="g7"
     transform="matrix(0.36189731,0,0,0.36189731,0.02332029,0)">
    <g
       id="g4">
      <path
         class="st0"
         d="M 293.9,298 V 73.6 H 378 c 33.8,0 58.9,4.7 75.1,14.1 16.1,9.5 24.2,24 24.2,43.8 0,19.8 -4,24 -12,32.4 -8,8.4 -20,14.4 -35.9,18.1 18.5,3.3 32.1,9.5 41,18.5 8.9,8.9 13.4,21 13.4,36.1 0,15.1 -7.3,35.8 -21.8,46.1 C 447.5,293 425.5,298 396.1,298 H 293.8 Z m 60.2,-133.4 h 24.1 c 13.3,0 23.2,-2 29.3,-6.1 6.1,-4.1 9.3,-10.5 9.3,-19.3 0,-8.8 -3.2,-14.5 -9.7,-18.8 -6.5,-4.1 -16.1,-6.3 -28.9,-6.3 h -24.1 z m 0,92.6 h 24.1 c 15,0 26,-2.1 32.8,-6.5 6.7,-4.3 10,-11.3 10,-21 0,-9.7 -3.5,-15.7 -10.4,-20 -6.9,-4.3 -17.7,-6.5 -32.4,-6.5 h -24.1 v 54.1 0 z"
         id="path1" />
      <path
         class="st0"
         d="M 511,298 V 73.6 h 102.8 c 29.3,0 51.5,6 66.6,18.2 15,12.1 22.6,30 22.6,53.4 0,23.4 -7.5,41 -22.4,53.8 -14.9,12.8 -35.7,19.3 -62.3,19.3 h -44.9 v 79.8 H 511 Z M 573.3,174.3 H 601 c 13.3,0 23,-2.4 29.4,-7.3 6.4,-4.9 9.5,-12.4 9.5,-22.6 0,-10.2 -3.1,-17.3 -9.3,-22 -6.2,-4.7 -16.1,-6.9 -29.6,-6.9 h -27.7 v 58.9 0 z"
         id="path2" />
      <path
         class="st0"
         d="M 729.6,298 V 73.6 h 62 V 298 Z"
         id="path3" />
      <path
         class="st1"
         d="m 2.1,263.1 c 2,5.2 6.1,10.1 12.4,15 9.2,7.2 78.4,53.3 99.3,67.1 l 4.7,3.1 3.9,-2.5 c 3.6,-2.4 87.7,-59.5 98,-67.6 6.3,-4.9 10.3,-9.9 12.4,-15 3.2,-8.4 2,-14.9 1.1,-19.7 v -0.3 c -0.4,-2.3 -14.1,-85.2 -21.6,-124.6 -30.2,-4.8 -61.1,-7.3 -92.7,-7.3 h -2.1 v 214.9 c -42.2,-27.7 -83.2,-54.5 -90,-59.8 -4.1,-3.2 -6.7,-6.1 -7.7,-8.8 -1.7,-4.3 -1.1,-8 -0.3,-11.7 0.5,-2.5 15.3,-91.5 22.5,-129.3 -6.5,0.8 -11.5,1.7 -17.8,2.8 C 16.6,158.8 1.5,240.9 1.1,243.3 0,248.2 -1.2,254.8 2,263.1 Z m 55,-113 h 7.5 v 6.4 h 6.5 v -6.8 H 79 v 6.8 h 6.3 V 150 h 7.5 v 16.8 H 57.2 v -16.6 z m 5.8,19.5 H 86.7 L 95,235.8 H 54.7 L 63,169.6 Z m -12.8,69.3 h 49.3 v 16.6 H 86.1 v -4.3 H 63.3 v 4.3 H 50 v -16.6 z m 19.2,-33.2 h 11.3 v -4.1 H 69.3 Z M 80.5,188.5 H 69.2 v 4.1 h 11.3 z m -11.3,30.3 h 11.3 v -4.1 H 69.2 Z m -7.4,-134 c -4.7,0.5 -7.9,1.1 -12.1,2.4 -0.7,3.7 -2,11.1 -3.2,16.8 23.4,-3.3 47.4,-5.2 71.8,-5.2 24.4,0 45.4,1.7 67.6,4.7 -1.2,-5.6 -2.4,-12.5 -3.1,-16.2 -2.9,-1.2 -6.8,-2 -11.7,-2.3 15.6,-3.7 25,-14.6 25,-25.2 0,-10.6 -10.9,-24.9 -37.9,-27.7 -9.6,-7.5 -22.9,-10.7 -34.4,-11.6 2.8,-2 4.8,-5.5 4.8,-9.3 0,-6.3 -6.3,-11.2 -12.2,-11.2 -5.9,0 -12.2,5.1 -12.2,11.2 0,6.1 1.9,7.3 4.8,9.3 -11.6,0.9 -24.8,4.1 -34.4,11.6 -26.9,2.7 -37.9,13.7 -37.9,27.7 0,10.5 9.6,21.4 25.2,25 z M 164,40.6 c 0,0 20.5,1.9 20.2,19.7 -0.1,14.1 -15.4,21.8 -34.9,19.4 26.8,-10.9 21,-31.6 14.6,-39.1 z M 122.7,30.1 c 17.2,1.6 30.5,12.2 30.5,25.4 0,13.2 -13.7,24.2 -31.3,25.4 3.6,-4.8 6,-14.5 6,-26 0.1,-10.5 -2,-19.7 -5.2,-24.9 z m -12.5,0 c -3.1,5.1 -5.2,14.2 -5.2,24.9 0,10.7 2.5,21.2 6,26 C 93.4,79.7 79.7,68.9 79.7,55.6 79.7,42.3 93,31.8 110.2,30.2 Z M 69,40.6 C 62.6,48.2 56.9,68.8 83.6,79.6 64.2,82 48.8,74.4 48.7,60.2 48.4,42.5 68.9,40.6 68.9,40.6 Z m 101.4,229 c 0.3,-0.8 0.4,-1.6 0.7,-2.4 1.3,-0.3 2.7,-0.4 4,-0.7 2.5,-1.6 2.3,-6.8 4.8,-8.3 1.2,-0.7 1.7,0.3 2.3,0.9 0.8,-1.7 0.5,-4.3 1.3,-6.3 2.1,-5.1 6.7,-7.9 4.9,-16.5 -0.1,-0.1 -0.3,-0.3 -0.3,-0.4 -0.8,1.2 -1.1,2 -2,2.9 -6.5,-0.4 -4.1,-15 0.3,-16.4 3.2,8.7 16.9,11.2 17.7,-0.3 0.1,-2.3 -1.7,-5.5 -4,-9.1 0.9,-3.6 2.4,-6.5 3.7,-8.4 0.8,-1.1 -3.7,0.9 -5.9,4.9 0.9,-3.9 2.5,-7.1 3.9,-9.1 0.8,-1.1 -3.2,0.7 -5.5,4.3 0.9,-3.9 2.5,-6.9 3.9,-8.9 0.8,-1.2 -4.1,1.1 -6.1,5.6 -0.7,-2.3 -1.2,-4.5 -1.1,-6.8 0.1,-5.5 1.7,-16.2 3.9,-25 0.5,-2.5 1.9,-7.2 5.5,-9.2 -2.8,-0.7 -7.6,1.9 -7.5,7.3 -0.8,-8 -6.8,-10.7 -9.9,-11.2 9.9,8.7 1.7,28.5 1.9,37.8 0.1,11.7 14.1,24 12,28.1 -3.2,6.1 -9.2,-5.6 -10.9,-9.3 -1.9,-3.7 -8.3,-9.6 -12.9,-14.1 2.8,-2 5.9,-6.9 6,-12.2 0.4,0.5 0.9,1.1 1.3,1.6 h 0.7 c -0.7,-4.9 1.3,-10 -0.3,-14.5 h 2.3 c -0.7,-21.7 -16.4,-17.2 -24,-15.3 -0.1,0.4 -0.3,0.8 -0.4,1.2 1.1,0 2,0.1 3.1,0.1 v 0 c -0.8,0.4 -1.6,0.7 -2.4,0.9 -0.4,1.5 0,4.9 1.9,6.7 0.7,-1.6 0.8,-2.3 2.3,-2.9 1.9,0.9 3.1,4.1 1.9,7.1 -1.3,0.5 -2.7,0.3 -3.2,-1.3 h -0.1 c -0.8,3.2 -0.5,6.5 1.9,8.7 0.1,-2.7 1.1,-3.9 3.3,-3.7 -0.7,6.5 -5.1,5.1 -9.5,6.8 -8.1,3.2 -10.4,15.4 -17.7,17.4 0.7,2.9 3.5,5.3 5.6,6.4 -1.1,2 -5.6,8.3 -7.6,8.5 -0.8,-1.1 -1.5,-2.1 -2.8,-2.5 -1.3,0.4 -2.5,0.7 -3.9,1.1 -0.1,0.4 -0.4,0.9 -0.7,1.3 0.5,0.1 1.1,0.3 1.7,0.4 0,0.8 -0.1,1.6 -0.1,2.4 1.1,0.3 2.5,0.3 3.5,0.8 0,0.3 0.1,0.4 0.1,0.7 -1.2,-0.3 -2.4,-0.8 -3.7,-0.4 -0.8,0.5 -2.5,3.7 -2.1,5.1 v 0.4 c 0.4,-0.4 0.7,-0.7 1.1,-0.9 0.8,0.3 0.8,0.4 0.9,1.3 0.3,0.1 0.5,0.3 0.8,0.4 0.9,-0.9 2,-1.9 2.9,-2.8 h 0.1 c 0.1,0.1 0.1,0.4 0.3,0.5 -0.9,0.9 -1.7,1.9 -2.7,2.8 -0.1,1.6 -0.4,3.3 -0.1,5.5 0.7,-0.5 1.2,-1.2 1.9,-1.7 2.4,2.3 3.9,-0.7 5.2,-2.9 0.8,0.8 1.7,0.9 2.8,0.9 0,0.5 0.1,1.2 0.1,1.7 h 0.1 c 3.9,-3.7 -1.1,-6.9 3.5,-11.5 2.1,1.3 3.7,0.9 5.9,0 0.4,-0.5 0.7,-1.1 1.1,-1.6 -1.2,-0.4 -1.9,-0.9 -2.4,-2.1 0,-0.8 0,-0.9 0.3,-1.3 0.9,-2 4.3,-1.7 6.1,-1.1 4.9,2 7.9,6.4 11.5,10 -0.3,4.5 -0.8,10.4 0.1,14.5 1.1,4.1 4,6 2.9,11.2 1.9,-0.1 2.8,-1.1 3.5,-2.5 0.7,0 1.5,0.1 2.1,0.1 -1.9,3.5 -5.2,10.1 -8.9,11.1 -3.3,0.9 -4.7,-3.2 -7.9,-2.1 -0.4,0.4 -0.9,0.9 -1.3,1.3 -1.5,0.8 -1.9,-0.3 -2.8,1.6 v 0.5 c 0.5,0 1.1,0.1 1.7,0.1 0.1,0.7 0.3,1.5 0.4,2.1 0.9,-0.9 1.7,-2 2.7,-2.9 0,0.1 0.1,0.3 0.1,0.4 -1.3,1.2 -2.3,3.1 -3.2,4.8 -0.1,1.2 0,2.1 0.1,3.3 q 0.1,0.1 0.3,0.1 c 0.3,-0.5 0.7,-1.1 0.9,-1.6 h 0.7 c 0.3,0.4 0.5,0.8 0.8,1.2 h 0.7 c 0.3,-1.6 0.7,-3.3 0.9,-4.9 0.1,-0.1 0.3,-0.3 0.4,-0.4 0,0.1 0.1,0.1 0.1,0.1 -0.9,2.7 -1.3,5.5 -0.7,8.4 0.1,0.1 0.4,0.4 0.7,0.5 0.1,-0.4 0.3,-0.9 0.4,-1.3 0.7,-0.7 1.1,-0.8 2.4,-0.8 0.1,-2.1 -0.5,-4 0.9,-5.3 -0.9,2.1 -0.7,5.3 -0.1,7.9 0.4,0.7 0.7,0.9 1.1,1.2 m -2.8,-107.2 v -2.7 c 1.9,-0.1 4.3,-0.3 5.5,0.5 -1.7,0.8 -3.6,1.5 -5.5,2.1 z m 3.6,80.3 v 0 c -1.9,-1.6 -8.3,-9.5 -6.3,-14 0.8,-2.5 3.2,-1.9 4.5,-0.7 0.1,-1.3 0.3,-2.8 0.3,-4.1 -1.2,-1.9 -4.3,-2.8 -3.1,-6.1 -8.1,-6.5 -7.6,4.5 -14.5,4.4 0.3,2.5 1.5,4.4 3.7,4.5 0,5.2 2,8.8 4.3,10.9 0,0.1 0.1,0.4 0.1,0.5 -3.1,0.4 -6.9,0.9 -9.2,-0.9 -2.7,-2.3 -3.3,-5.6 -8,-5.3 v 0 c 0.3,0.5 0.5,0.9 0.8,1.3 0.1,0.7 -0.3,0.9 -0.4,1.7 v 0.3 c 0.9,0.3 1.7,0.5 2.7,0.8 h 0.3 v 0.8 c -2.5,-0.5 -5.2,-0.4 -6.1,2.4 v 0.3 h 1.6 c 0.4,0.8 0.8,1.5 0.9,2.8 0.9,-1.1 1.9,-2.1 2.8,-3.2 h 0.1 c -0.5,2.9 -2.9,3.7 -3.2,7.3 v 0 c 0.5,0.1 1.2,-0.4 1.9,-0.8 0.5,0.5 1.1,1.1 1.5,1.6 0.7,-0.7 0.9,-2.4 1.2,-3.6 h 0.7 c -0.4,2.1 -1.6,4.8 -0.8,6.9 0.3,0.3 0.5,0.7 0.8,0.9 0.3,-0.7 0.4,-1.3 0.7,-2 0.9,-0.7 1.6,0.7 3.2,0 1.9,-0.8 1.9,-3.3 4.5,-3.3 0.7,0.8 1.1,1.2 1.1,2.9 1.7,-0.5 2.3,-2.3 3.9,-2.8 5.2,-1.7 6.4,0.8 10.1,-3.6 z M 158,173.5 c 3.5,-0.4 4.7,-4.3 8.3,-4.4 v -0.3 c -0.9,-0.1 -1.6,-0.4 -2.7,-0.1 -1.7,0.4 -9.7,4.8 -6.5,-2 -2.5,1.1 -3.5,7.2 0.9,6.8 z m -24.5,17.4 v 0 c 0.8,1.2 2.8,0.9 4.3,0.9 0.5,-0.8 1.1,-1.7 1.7,-2.5 h 0.3 c 1.7,2.3 3.6,4.5 5.3,6.8 h 0.3 c 1.7,-1.6 2.9,-3.9 4.3,-6 -0.5,-3.3 -4.4,-4.8 -5.3,-8 -1.2,-3.6 2.4,-8.7 -2.1,-11.2 0,1.9 -0.8,2.3 -0.9,3.3 0.1,1.1 0.3,2.1 0.3,3.2 v 0.4 h -0.1 c -0.7,-0.8 -0.5,-2 -1.1,-3.2 -0.5,-1.2 -3.3,-2.7 -4.5,-2.9 v 0.3 c 0.4,1.3 0.1,2.4 0.3,3.5 0.7,1.1 1.3,2.3 2,3.3 v 0.8 h -0.4 c -0.7,-0.8 -1.5,-1.7 -2.1,-2.5 -1.1,-0.5 -3.2,0 -4.3,0.4 0.4,0.5 0.9,1.1 1.3,1.6 1.1,1.7 6.1,7.6 0.9,11.9 z m 31,-44.6 c 1.5,-1.2 3.6,-1.7 5.3,-1.9 -0.4,-0.3 -0.8,-0.8 -0.8,-1.5 0,-0.7 0.9,-1.7 1.9,-1.7 1,0 1.9,0.8 1.9,1.7 0,0.9 -0.3,1.2 -0.8,1.5 1.9,0.1 3.9,0.7 5.3,1.9 4.3,0.4 6,2.1 6,4.3 0,2.2 -1.7,3.7 -4.7,4.1 -0.1,0.7 -0.1,1.5 -0.3,1.9 -1.7,-0.5 -4.9,-0.8 -7.6,-0.8 -2.7,0 -6.1,0.4 -7.6,0.8 0,-0.4 -0.1,-1.2 -0.3,-1.9 -2.9,-0.4 -4.7,-2.3 -4.7,-4.1 0.4,-2.1 2,-3.9 6.3,-4.3 z m 17.2,4.4 c 0,-2.4 -2.9,-2.7 -2.9,-2.7 0.9,1.1 1.7,3.9 -2.1,5.3 2.8,0.3 5.1,-0.8 5.1,-2.7 z m -4.8,-0.8 c 0,-1.9 -2.1,-3.3 -4.8,-3.5 0.5,0.7 0.8,2 0.8,3.5 0,1.5 -0.4,2.9 -0.9,3.6 2.7,-0.3 4.9,-1.7 4.9,-3.6 z m -6.7,3.6 c -0.5,-0.7 -0.9,-2 -0.9,-3.6 0,-1.6 0.3,-2.8 0.8,-3.5 -2.7,0.3 -4.8,1.7 -4.8,3.5 0,1.9 2.1,3.3 4.9,3.6 z m -4.6,-0.1 c -4,-1.5 -3.1,-4.4 -2.1,-5.5 0,0 -3.1,0.3 -2.9,2.7 0,2.1 2.3,3.2 5.1,2.8 z"
         id="path4" />
    </g>
    <g
       id="g6">
      <path
         class="st0"
         d="M 819.8,91.8 817.1,88 c -0.1,0 -0.3,0 -0.5,0 h -3 v 3.8 h -2.4 V 78.7 h 5.4 c 1.1,0 2.1,0.2 3,0.6 0.8,0.4 1.5,0.9 1.9,1.6 0.4,0.7 0.7,1.5 0.7,2.5 0,1 -0.2,1.8 -0.7,2.5 -0.5,0.7 -1.2,1.2 -2.1,1.6 l 3,4.3 z m -0.9,-10.4 c -0.5,-0.4 -1.4,-0.7 -2.4,-0.7 h -2.8 v 5.2 h 2.8 c 1.1,0 1.9,-0.2 2.4,-0.7 0.5,-0.5 0.8,-1.1 0.8,-1.9 0,-0.8 -0.3,-1.5 -0.8,-1.9 z"
         id="path5" />
      <path
         class="st0"
         d="m 816.4,98 c -6.9,0 -12.5,-5.6 -12.5,-12.5 0,-6.9 5.6,-12.5 12.5,-12.5 6.9,0 12.5,5.6 12.5,12.5 0,6.9 -5.6,12.5 -12.5,12.5 z m 0,-23.1 c -5.8,0 -10.6,4.8 -10.6,10.6 0,5.8 4.8,10.6 10.6,10.6 5.8,0 10.6,-4.8 10.6,-10.6 0,-5.8 -4.8,-10.6 -10.6,-10.6 z"
         id="path6" />
    </g>
  </g>
</svg>
