<svg id="Layer_1" data-name="Layer 1" xmlns="http://www.w3.org/2000/svg" viewBox="0 0 750 139.12"><title>Chinabank logo - Brandlogos.net</title><g id="layer1"><g id="g1"><path id="path2" d="M238,306.49a7.27,7.27,0,0,0,7.27-7.27v-5.16a7.27,7.27,0,0,0-7.27-7.27H194.89a3,3,0,0,0-3,3v47.47a3,3,0,0,0,3,3H238a7.27,7.27,0,0,0,7.27-7.27v-5.16a7.27,7.27,0,0,0-7.27-7.27H211.56V306.49Z" transform="translate(-149 -244)" style="fill:#ed1a37"/><path id="path4" d="M256.48,321.84c1.09.78,2.23,2.17,2.23,6.6v14.31a11,11,0,0,1-11,11H181.84a3.29,3.29,0,0,1-3.29-3.28V276.7a3.29,3.29,0,0,1,3.29-3.28h65.91a11,11,0,0,1,11,11v14.31c0,3.49-1.14,5.82-2.23,6.6a.66.66,0,0,0,.38,1.2h22.49a8.76,8.76,0,0,0,8.76-8.76V261.53A17.53,17.53,0,0,0,270.59,244H166.53A17.53,17.53,0,0,0,149,261.53V365.59a17.53,17.53,0,0,0,17.53,17.53H270.59a17.53,17.53,0,0,0,17.53-17.53V329.41a8.76,8.76,0,0,0-8.76-8.76H256.86a.66.66,0,0,0-.38,1.2" transform="translate(-149 -244)" style="fill:#ed1a37"/><path id="path6" d="M771.73,353.69a2.43,2.43,0,0,1-2.41-2.44V298.71a2.43,2.43,0,0,1,2.41-2.44H786a2.43,2.43,0,0,1,2.41,2.44v2.88c0,1.06.94,1.28,1.47.43,2.94-3.93,9.15-6.82,17.46-6.82,13.88,0,22,7.89,22,22.14v33.93a2.43,2.43,0,0,1-2.41,2.44H812.63a2.43,2.43,0,0,1-2.41-2.44v-30c0-6.8-3.78-10.74-10.62-10.74s-11.15,3.94-11.15,10.74v30a2.43,2.43,0,0,1-2.41,2.44Z" transform="translate(-149 -244)" style="fill:#ed1a37"/><path id="path8" d="M840.79,353.69a2.43,2.43,0,0,1-2.41-2.44v-75.4a2.43,2.43,0,0,1,2.41-2.44h14.32a2.43,2.43,0,0,1,2.41,2.44v36.26c0,1,.73,1.28,1.47.64l16.51-15a4.06,4.06,0,0,1,3.68-1.49h17.35c1.79,0,2,1.6.73,2.77L878,317a1.48,1.48,0,0,0-.21,2.23l20.61,31.36c1.16,1.7.53,3.08-1.47,3.08H880.76a3.89,3.89,0,0,1-3.57-1.91l-12.51-19.14c-.53-1-1.26-1-2.1-.21l-3.78,3.51a3.09,3.09,0,0,0-1.26,2.66v12.66a2.43,2.43,0,0,1-2.41,2.44Z" transform="translate(-149 -244)" style="fill:#ed1a37"/><path id="path10" d="M469.88,353.69a2.43,2.43,0,0,1-2.41-2.44V298.71a2.43,2.43,0,0,1,2.41-2.44h14.32a2.43,2.43,0,0,1,2.41,2.44v52.54a2.43,2.43,0,0,1-2.41,2.44Z" transform="translate(-149 -244)" style="fill:#ed1a37"/><path id="path12" d="M486.61,275.85a2.42,2.42,0,0,0-2.41-2.44H469.88a2.42,2.42,0,0,0-2.41,2.44V288.9a2.43,2.43,0,0,0,2.41,2.44h14.32a2.43,2.43,0,0,0,2.41-2.44Z" transform="translate(-149 -244)" style="fill:#ed1a37"/><path id="path14" d="M362.64,336.77H344.89a8.09,8.09,0,0,1-8.09-8.09V298.75a8.09,8.09,0,0,1,8.09-8.09h17.75a8.09,8.09,0,0,1,8.09,8.09v5.42a2.44,2.44,0,0,0,2.43,2.45h14.29a2.44,2.44,0,0,0,2.43-2.45v-3.91a27.5,27.5,0,0,0-27.5-27.5H345.17a27.5,27.5,0,0,0-27.5,27.5v26.89a27.5,27.5,0,0,0,27.5,27.5h17.21a27.5,27.5,0,0,0,27.5-27.5v-3.9a2.44,2.44,0,0,0-2.43-2.46H373.15a2.44,2.44,0,0,0-2.43,2.46v5.42a8.09,8.09,0,0,1-8.09,8.09" transform="translate(-149 -244)" style="fill:#ed1a37"/><path id="path16" d="M400.66,353.69a2.43,2.43,0,0,1-2.41-2.44v-75.4a2.43,2.43,0,0,1,2.41-2.44H415a2.43,2.43,0,0,1,2.41,2.44v25.74c0,1.06.94,1.28,1.47.43,2.94-3.93,9.15-6.82,17.46-6.82,13.88,0,22,7.89,22,22.14v33.93a2.43,2.43,0,0,1-2.41,2.44H441.56a2.43,2.43,0,0,1-2.41-2.44v-30c0-6.8-3.78-10.74-10.62-10.74s-11.15,3.94-11.15,10.74v30a2.43,2.43,0,0,1-2.41,2.44Z" transform="translate(-149 -244)" style="fill:#ed1a37"/><path id="path18" d="M498.53,353.69a2.43,2.43,0,0,1-2.41-2.44V298.71a2.43,2.43,0,0,1,2.41-2.44h14.32a2.43,2.43,0,0,1,2.41,2.44v2.88c0,1.06.94,1.28,1.47.43,2.94-3.93,9.15-6.82,17.46-6.82,13.88,0,22,7.89,22,22.14v33.93a2.43,2.43,0,0,1-2.41,2.44H539.43a2.43,2.43,0,0,1-2.41-2.44v-30c0-6.8-3.78-10.74-10.62-10.74s-11.15,3.94-11.15,10.74v30a2.43,2.43,0,0,1-2.41,2.44Z" transform="translate(-149 -244)" style="fill:#ed1a37"/><path id="path20" d="M585.34,354.77c-13.88,0-21.95-7.89-21.95-22.14V317.32c0-14.25,8.07-22.14,21.95-22.14,7.15,0,13.56,2.25,17.35,5.65.63.53,1.58.32,1.58-.53v-1.59a2.43,2.43,0,0,1,2.41-2.44H621a2.43,2.43,0,0,1,2.41,2.44v52.53a2.43,2.43,0,0,1-2.41,2.44H607.1a2.43,2.43,0,0,1-2.41-2.44v-1.6a1.06,1.06,0,0,0-1.89-.74c-3.37,3.51-10.1,5.87-17.46,5.87m8.34-44.89c-6.94,0-11.15,3.93-11.15,10.74v8.72c0,6.8,3.78,10.74,10.62,10.74s11.14-3.93,11.14-10.74v-8.72c0-6.8-3.78-10.74-10.62-10.74" transform="translate(-149 -244)" style="fill:#ed1a37"/><path id="path22" d="M721.91,354.77c-13.88,0-21.95-7.89-21.95-22.14V317.32c0-14.25,8.07-22.14,21.95-22.14,7.15,0,13.56,2.25,17.35,5.65.63.53,1.58.32,1.58-.53v-1.59a2.43,2.43,0,0,1,2.41-2.44h14.32a2.43,2.43,0,0,1,2.41,2.44v52.53a2.43,2.43,0,0,1-2.41,2.44H743.66a2.43,2.43,0,0,1-2.41-2.44v-1.6a1.06,1.06,0,0,0-1.89-.74c-3.37,3.51-10.1,5.87-17.46,5.87m8.34-44.89c-6.94,0-11.15,3.93-11.15,10.74v8.72c0,6.8,3.78,10.74,10.62,10.74s11.14-3.93,11.14-10.74v-8.72c0-6.8-3.78-10.74-10.62-10.74" transform="translate(-149 -244)" style="fill:#ed1a37"/><path id="path24" d="M653.53,348.92a1.06,1.06,0,0,0-1.89.74v1.6a2.42,2.42,0,0,1-2.41,2.44h-13.9a2.42,2.42,0,0,1-2.41-2.44v-75.4a2.42,2.42,0,0,1,2.41-2.44h14.32a2.42,2.42,0,0,1,2.41,2.44v24.46c0,.85.95,1.06,1.58.53,3.78-3.4,10.2-5.66,17.35-5.66,13.88,0,21.94,7.89,21.94,22.14v15.31c0,14.25-8.07,22.14-21.94,22.14-7.36,0-14.09-2.36-17.46-5.87m9.64-39c-6.94,0-11.15,3.93-11.15,10.74v8.72c0,6.8,3.79,10.74,10.62,10.74s11.15-3.93,11.15-10.74v-8.72c0-6.8-3.79-10.74-10.62-10.74" transform="translate(-149 -244)" style="fill:#ed1a37"/></g></g></svg>