<svg xmlns="http://www.w3.org/2000/svg" viewBox="0 0 120 120" role="img" aria-label="Coins logo">
  <rect width="120" height="120" rx="28" fill="#fff8e6"/>
  <ellipse cx="45" cy="74" rx="24" ry="10" fill="#d8a22e"/>
  <path d="M21 50c0-6 11-11 24-11s24 5 24 11v24c0 6-11 11-24 11S21 80 21 74V50Z" fill="#f6d365"/>
  <ellipse cx="45" cy="50" rx="24" ry="11" fill="#ffe89a"/>
  <path d="M56 38c4-8 13-14 23-14 14 0 26 12 26 26S93 76 79 76c-4 0-8-1-12-3" fill="#2898ed"/>
  <path d="M79 36v28M69 50h20" stroke="#fff8e6" stroke-width="7" stroke-linecap="round"/>
</svg>
