<?xml version="1.0" encoding="UTF-8"?><svg id="a" xmlns="http://www.w3.org/2000/svg" width="140.53" height="24.77" viewBox="0 0 140.53 24.77">
<title>HSBC 1998 - 2018 logo - Brandlogos.net</title><path d="M18.17,13.33s0,8.57,0,8.57c0,1.08-.92,2.02-2.14,2.02h-1.16v.44h9.83v-.44h-1.16c-1.2,0-2.14-.96-2.14-2.02V2.81c0-1.04.93-2.02,2.14-2.02h1.16v-.44h-9.83v.44h1.16c1.23,0,2.14.97,2.14,2.02v9.31H6.53V2.81c0-1.04.94-2.02,2.14-2.02h1.16v-.44H0v.44h1.16c1.21,0,2.14.97,2.14,2.02v19.08c0,1.06-.93,2.02-2.14,2.02H0v.44h9.83v-.44h-1.16c-1.2,0-2.14-.96-2.14-2.02,0,0,.02-8.57,0-8.57h11.64Z" style="fill:#1a1818;"/><path d="M41.55,18.07c.08,1.41-.79,3.55-2,4.64-1.17,1.05-2.83,1.97-5.05,1.97-2.52,0-4.7-1.35-5.49-1.65-.48-.18-1.11-.16-1.48.07-.44.27-.71.71-.81,1.51h-.37v-8.31h.37c.34,2.56,1.53,4.06,2.27,4.91,1.21,1.4,3.5,2.19,5.7,1.83,1.75-.28,3.67-2.18,3.46-4.54-.08-.85-.26-2.09-2.03-3.24-1.11-.73-2.68-1.75-4.17-2.74-1.88-1.25-3.59-2.6-4.07-3.15-.63-.72-1.42-1.75-1.42-3.4,0-1.41.54-3.03,1.68-4.11,1.14-1.08,2.69-1.88,4.91-1.88s3.91,1.18,4.48,1.45c.57.27,1.2.21,1.56,0,.35-.2.59-.51.69-1.31h.37v7.88h-.37c-.34-2.56-1.45-4.48-2.22-5.18-.77-.71-2.29-1.68-4.54-1.25-2.16.42-3.22,1.4-3.42,3.13-.15,1.32.56,2.13.98,2.62.84,1.01,6.18,4.04,8.6,6.13,1.25,1.08,2.22,2.36,2.35,4.61" style="fill:#1a1818;"/><path d="M49.37,23c1.66.51,4.83.91,7.03-.67,2.65-1.89,3.2-6.52-.53-8.93-1.5-.97-5.26-.9-6.5-.61v10.22ZM49.37,11.43c1.18.3,4.65.38,5.99-.47,2.11-1.34,2.84-3.49,2.45-5.39-.23-1.14-.84-2.2-1.88-2.93-2.05-1.45-5.01-1.21-6.56-.74v9.53ZM57.11,12.1c4.28,1.47,5.5,4.49,4.7,7.6-.93,3.66-5.06,4.4-6.39,4.58-.6.08-2.14.07-3.67.07-2.72,0-6.16,0-8.92,0v-.44h1.41c.9,0,1.93-.76,1.93-1.9V2.84c0-1.15-1.03-1.92-1.92-1.92h-1.41v-.44h8.53c2.05,0,3.17.2,3.89.34,1.21.23,4.75,1.28,5.59,4.58.65,2.55-.62,5.77-3.74,6.7" style="fill:#1a1818;"/><path d="M84.31.77l.35,8.13-.49.02c-.24-2.05-1.01-3.5-1.99-4.44-.28-.27-.81-.82-1.58-1.3-1.28-.81-3.19-1.52-5.45-1.12-3.4.61-5.15,2.85-6.03,5.01-1.08,2.66-1.76,7.21.07,11.04,1.48,3.11,4.33,4.41,6.53,4.74,1.87.29,6.03.2,9.19-4.07l.51.34c-2.46,3.47-5.72,5.69-9.46,5.65-4.78-.04-7.78-2.68-9.15-4.24-1.45-1.65-2.56-4.78-2.57-7.51-.01-2.42.52-5.12,1.39-6.7,1.5-2.71,4.63-5.4,8.75-5.81,3.09-.3,5.12.3,6.85,1.3.87.5,1.35.55,1.82.35.47-.2.85-.61.85-1.4h.41Z" style="fill:#1a1818;"/><path d="M128.54,24.35h-23.98V.38h23.98v23.97Z" style="fill:#fff;"/><path d="M92.57,12.37l11.99,11.99V.38l-11.99,11.99Z" style="fill:#e71d1c;"/><path d="M104.56,24.35h23.98l-11.99-11.99-11.99,11.99Z" style="fill:#e71d1c;"/><path d="M116.55,12.37L128.54.38h-23.98l11.99,11.99Z" style="fill:#e71d1c;"/><path d="M128.54.38v23.98l11.99-11.99L128.54.38Z" style="fill:#e71d1c;"/></svg>