<?xml version="1.0" encoding="UTF-8"?><svg id="a" xmlns="http://www.w3.org/2000/svg" viewBox="0 0 680 145.1327">
<title>MariBank-logo - brandlogos.net</title><path d="M34.0911,120.1051c10.5465-.581,19.1954,3.113,28.3932,7.018,10.3348,4.422,21.0303,8.923,35.9914,8.319,3.7643-.157,7.4803-.862,11.0403-2.093,1.184-.338,2.462-.204,3.552.368,1.09.573,1.921,1.545,2.313,2.713.393,1.169.322,2.447-.196,3.568-.517,1.121-1.45,1.992-2.603,2.446-4.43,1.553-9.064,2.431-13.7534,2.604-1.78.062-3.5992.117-5.3478.062-14.3416-.415-25.1077-4.987-34.7446-9.088-8.4686-3.622-15.8315-6.688-23.9708-6.296-4.3127.423-8.4372,1.984-11.9579,4.509-.9958.799-2.274,1.176-3.5442,1.043-1.2703-.142-2.4387-.777-3.2385-1.773-.7998-.995-1.1762-2.274-1.035-3.544.1411-1.27.7763-2.438,1.7721-3.238,5.0576-3.764,11.0483-6.054,17.3292-6.626v.008ZM33.8637,105.3631c15.2748-.643,25.4057,3.803,35.1916,8.045,9.2997,4.039,18.0584,7.881,31.4827,7.324,10.499-.431,19.729-5.771,24.292-8.947,1.09-.706,2.407-.957,3.678-.706,1.27.251,2.391.988,3.128,2.055.738,1.066,1.028,2.376.816,3.654-.212,1.278-.918,2.423-1.96,3.191-5.466,3.772-16.553,10.178-29.554,10.672-1.4978.11-2.9955.141-4.501.094-13.2596-.282-22.4731-4.281-31.42-8.202-9.1429-3.999-17.784-7.755-30.7926-7.229-11.2287.454-21.1793,7.198-26.1036,11.173-1.035.832-2.3524,1.216-3.6697,1.075-1.3173-.141-2.5249-.8-3.3482-1.835-.8312-1.035-1.2154-2.352-1.0743-3.67.1411-1.317.7998-2.525,1.8349-3.348,5.8653-4.76,17.8389-12.805,31.9924-13.354l.0078.008Z" style="fill:#2673dd;"/><path d="M67.0713,0C75.8533,0,84.5573,1.733,92.6729,5.0889c8.1161,3.3639,15.4871,8.2887,21.7051,14.499,6.21,6.2102,11.134,13.5886,14.498,21.7041,3.364,8.1156,5.09,16.8117,5.09,25.6016,0,17.1802-6.478,32.0943-17.056,43.9115-4.148,1.936-9.087,4.274-14.317,4.564-1.631.094-3.2076.125-4.7131.094,9.8091-6.25,17.4941-15.33,22.0421-26.0334,4.548-10.7031,5.747-22.5355,3.434-33.9365-2.313-11.4012-8.022-21.8307-16.388-29.9228-8.359-8.0843-18.9759-13.4559-30.4475-15.3848-11.4716-1.9368-23.2573-.345-33.8115,4.5556-10.5464,4.9008-19.3679,12.8835-25.2881,22.8965-5.9201,10.0133-8.6728,21.5874-7.8887,33.1924.7842,11.6051,5.0732,22.7009,12.2871,31.82-3.0657.918-6.0608,2.078-8.9463,3.474C5.6356,96.1422,1.2916,84.3488.335,72.0537c-.9645-12.295,1.497-24.6218,7.1035-35.6074,5.6065-10.9856,14.1459-20.2069,24.6689-26.6367C42.6382,3.3798,54.7371-.0156,67.0713,0ZM67.0557,13.8477c12.0284,0,23.6883,4.1169,33.0503,11.668,9.363,7.5511,15.855,18.0741,18.404,29.8203,2.548,11.754,1.004,24.026-4.383,34.7685-5.387,10.7506-14.295,19.3286-25.2413,24.3156-6.5237-1.223-12.1301-3.513-17.9404-5.889l-.1338-.054c-10.1544-4.164-21.7357-8.9085-38.4531-7.889-1.6623.102-3.3172.298-4.9639.58-6.6571-7.6139-10.9858-16.984-12.4599-26.9894-1.4742-10.0054-.031-20.223,4.1484-29.4365,4.1794-9.2055,10.9308-17.0151,19.4385-22.4883,8.5077-5.4731,18.4034-8.3828,28.5185-8.375v-.0312h.0157ZM42.0732,88.4727h9.5664v-29.4434c.196.0706.361.2192.4551.4151,3.5516,6.5086,10.6077,19.8935,10.6407,19.956h8.8291c.0326-.0635,6.5479-12.7254,9.8173-18.7246.3215-.6194.7058-1.2233,1.0586-1.8349l.2198.0703v29.5459h9.4169l.0469-49.1407c-.1253-.0546-9.4313-.0003-9.5029,0-.0047.0098-1.1856,2.4797-1.7568,3.5362-4.1715,7.6686-8.3432,15.3294-12.5147,22.998-.3763.6586-.7846,1.3958-1.2236,2.1328-.1722-.2426-.2508-.3366-.3057-.4463-5.0262-9.1899-10.468-19.1644-15.4551-28.3779h-9.292v49.3135Z" style="fill:#ea5f00;"/><path d="M565.619,60.0328l.494.2588c.039-.2116.11-.4153.212-.6113,3.842-5.6536,9.457-7.9203,15.988-8.3594,5.568-.5645,11.166.6673,15.981,3.5137,3.058,1.7956,5.662,4.2655,7.606,7.2295,1.9449,2.956,3.183,6.328,3.615,9.8486l-.008.0234c.643,4.9713.972,9.9817.98,15,.126,8.5235.016,18.2.016,26.998h-15.832v-1.788c0-8.124.118-17.3843-.07-25.5-.102-3.7246-.534-7.4339-1.287-11.0801-1.638-8.0211-7.425-11.1179-15.07-10.0752-6.782.9331-10.954,5.41-11.95,12.6709-.416,2.9562-.636,5.9363-.667,8.9239-.086,8.492,0,18.4195,0,27.1385-.515.071-13.158,0-15.69,0v-63.0126c.023-.3763.063-.7526.125-1.1289h15.557v9.9502ZM322.751,114.1531c-2.189,0-15.902.102-16.215,0v-8.359c-.643.573-1.043.895-1.404,1.248-5.834,5.519-12.844,7.291-20.677,6.523-5.583-.486-10.892-2.596-15.291-6.062-3.074-2.422-5.63-5.433-7.535-8.8521-1.905-3.4186-3.113-7.1822-3.552-11.0713-1.145-6.7827-.29-13.7542,2.454-20.0664,4.838-10.6561,13.213-16.2857,24.872-17.1875,3.874-.4156,7.795.0703,11.449,1.4189,3.654,1.3566,6.947,3.5365,9.613,6.375h.008v-8.1084h16.278v64.1418ZM538.88,50.0113v64.1418c-2.189,0-15.91.102-16.216,0v-8.359c-.643.573-1.043.895-1.403,1.248-5.834,5.52-12.845,7.291-20.678,6.523-5.583-.486-10.891-2.596-15.29-6.062-3.074-2.422-5.63-5.433-7.535-8.8521-1.906-3.4187-3.114-7.1822-3.553-11.0713-1.145-6.7827-.289-13.7542,2.455-20.0664,4.838-10.6561,13.212-16.2858,24.872-17.1875,3.874-.4156,7.794.0702,11.448,1.4189,3.654,1.3566,6.948,3.5365,9.614,6.375h.008v-8.1084h16.278ZM437.155,31.0826c5.254-.1725,10.468.9961,15.15,3.3955,12.82,7.0729,14.075,23.9635,5.505,33.6631-.243.2665-.471.5642-.8.9483,1.129.8468,2.172,1.5915,3.152,2.4619v-.0078c6.116,5.3946,8.304,12.303,7.825,20.2617-.541,9.0488-7.402,18.3178-19.956,20.8738-4.093.831-8.257,1.271-12.436,1.325-9.974.181-21.109,0-31.091,0V31.0826h32.651ZM404.505,114.0431c.494.04-.329.001-.047-.031h.047v.031ZM637.077,73.7164c2.149-2.4934,3.991-4.6112,5.7859-6.7832,4.211-4.9792,12.077-14.4204,14.17-16.6787h22.967c-1.733,1.9838-4.392,4.8929-5.952,6.6572-6.03,6.8376-12.0829,13.6674-18.168,20.4893-.235.1803-.423.4082-.557.667-.141.2587-.212.5409-.227.8388-.016.2901.039.5801.149.8545.118.2666.283.5179.502.7139h-.008c7.787,10.617,15.479,21.3129,23.187,31.9839.306.432.58.887,1.043,1.584h-20.239c-.517-.525-10.782-15.4778-16.043-22.7232-.181-.243-.416-.4628-.721-.7998-1.937,1.8975-3.858,3.7088-5.654,5.6533-.305.5646-.424,1.2077-.337,1.835v15.9807h-15.942V31.2242h16.044v42.4922ZM392.076,113.9341c-.031.36-.101-.494-.156,0h-15.737v-57.0614h15.893v57.0614ZM181.946,31.0904c8.39,15.4628,17.517,32.2199,25.939,47.667.164.2587.345.51.533.7451.721-1.2701,1.412-2.4069,2.047-3.5751,7.01-12.8831,14.012-25.7586,21.007-38.6338.964-1.7722,2.964-5.9366,2.964-5.9366h.007s15.811-.1016,15.965,0v82.5371h-15.831v-49.6113l-.361-.1094c-.604,1.0192-1.215,2.0306-1.787,3.0733-5.492,10.0674-16.446,31.3486-16.498,31.4512h-14.805c-.048-.0909-11.931-22.6363-17.901-33.5215-.157-.3214-.44-.564-.777-.6895v49.4782h-16.114V31.0904h15.612ZM349.451,59.6959l-.18.2354v.0078c4.79-5.5515,10.483-9.2139,18.214-8.9004v15.7773c-1.176.0392-2.344.141-3.512.3135-8.084,1.5997-13.393,7.1668-14.294,15.5098-.549,5.0733-.204,26.1588-.204,31.2948h-15.675v-63.9149h15.651v9.6767ZM306.395,84.1842c1.646-13.189-8.83-21.6498-20.772-18.6074-7.418,1.8662-12.091,8.5861-12.248,16.7802h.055c.141,1.6388.376,3.2696.698,4.877,3.066,12.2794,17.721,14.6401,26.01,8.751,3.998-2.8621,5.653-7.0884,6.249-11.793l.008-.0078ZM522.523,84.1842c1.647-13.189-8.829-21.6497-20.771-18.6074-7.418,1.8662-12.091,8.5861-12.248,16.7802h.055c.141,1.6388.376,3.2696.698,4.877,3.066,12.2793,17.72,14.6401,26.009,8.751,3.999-2.8621,5.654-7.0883,6.25-11.793l.007-.0078ZM421.692,79.2125c-.776,0-1.128.2353-1.129,1.1289.032,5.6849.032,11.4957.032,17.4551.564,0,.925.0781,1.286.0781,5.457,0,10.907.0004,16.356-.0937,2.086-.0236,4.165-.2349,6.211-.6192,6.783-1.3252,8.507-5.8816,7.08-11.5664-.98-3.8891-4.25-5.5519-7.912-5.7636-7.292-.4391-14.616-.4388-21.924-.6192ZM420.72,47.2203h-.008v15.8867h17.095c1.278-.047,2.548-.2351,3.779-.5644,1.505-.3058,2.862-1.114,3.857-2.2822.996-1.1684,1.576-2.635,1.647-4.1719.102-4.5243-1.388-6.9864-5.198-8.0371-1.749-.4783-3.552-.745-5.364-.7764-5.214-.1098-10.445-.0547-15.808-.0547ZM384.086,31.8277c2.454.0314,4.799,1.0356,6.517,2.792,1.724,1.7564,2.673,4.1163,2.658,6.5703-.008,1.1997-.259,2.3916-.73,3.4971-.47,1.1054-1.152,2.1093-2.014,2.9483-.855.839-1.875,1.5061-2.989,1.9531-1.121.4468-2.313.6739-3.512.6582-1.2-.0079-2.392-.2581-3.497-.7285-1.106-.4705-2.11-1.1531-2.949-2.0156-.839-.8547-1.505-1.874-1.952-2.9874-.455-1.1133-.675-2.3131-.667-3.5127,0-2.4307.957-4.7602,2.674-6.4853,1.717-1.7171,4.046-2.6971,6.477-2.6973l-.016.0078Z" style="fill:#ea5f00;"/></svg>