<?xml version="1.0" encoding="UTF-8" ?>
<!DOCTYPE svg PUBLIC "-//W3C//DTD SVG 1.1//EN" "http://www.w3.org/Graphics/SVG/1.1/DTD/svg11.dtd">
<svg width="457pt" height="123pt" viewBox="0 0 1144 308" version="1.1" xmlns="http://www.w3.org/2000/svg">
<g id="#ffffffff">
<path fill="#ffffff" opacity="1.00" d=" M 100.02 58.27 C 119.73 63.21 140.78 56.81 156.95 45.21 C 172.91 56.91 193.77 63.06 213.35 58.32 C 216.64 65.89 221.78 72.86 229.27 76.70 C 237.45 80.87 246.47 83.36 255.50 84.82 C 249.97 96.46 250.40 109.59 250.29 122.15 L 249.87 122.58 C 231.37 122.82 212.85 122.55 194.35 122.71 C 192.06 113.89 187.02 105.71 179.57 100.36 C 168.42 92.00 152.55 90.78 140.19 97.16 C 130.08 102.11 122.78 111.82 120.23 122.72 C 101.58 122.60 82.93 122.68 64.28 122.68 C 64.37 109.89 64.61 96.55 59.07 84.68 C 68.25 82.75 77.66 80.63 85.80 75.78 C 92.45 71.84 97.23 65.39 100.02 58.27 M 152.83 67.95 C 149.06 68.07 145.28 68.10 141.51 68.10 C 144.35 70.52 147.35 72.76 150.37 74.95 C 149.20 78.52 148.03 82.09 147.16 85.75 C 150.12 83.56 153.10 81.39 156.10 79.26 C 159.08 81.30 162.01 83.43 165.10 85.32 C 164.20 81.86 163.10 78.45 161.98 75.06 C 164.92 72.71 167.96 70.49 171.04 68.32 C 167.18 68.04 163.30 68.05 159.43 67.88 C 158.48 64.50 157.47 61.14 156.34 57.81 C 154.83 61.06 153.78 64.50 152.83 67.95 M 101.75 76.04 C 100.70 79.64 99.65 83.24 98.60 86.84 C 94.88 86.91 91.16 86.94 87.45 87.06 C 90.21 89.29 93.10 91.35 96.09 93.27 C 95.12 96.95 93.95 100.58 92.93 104.25 C 96.08 102.34 98.78 99.77 101.98 97.95 C 105.27 99.71 108.04 102.27 111.24 104.19 C 110.20 100.51 108.81 96.94 107.86 93.23 C 110.87 91.37 113.75 89.32 116.45 87.04 C 112.83 86.96 109.21 86.92 105.59 86.78 C 104.57 83.11 103.38 79.49 101.75 76.04 M 209.90 75.92 C 208.78 79.56 207.69 83.20 206.63 86.85 C 202.92 86.91 199.22 86.92 195.52 87.07 C 198.49 89.36 201.68 91.37 204.66 93.66 C 203.31 97.14 202.05 100.66 201.02 104.25 C 204.13 102.22 207.06 99.93 210.04 97.73 C 213.08 99.90 216.09 102.12 219.23 104.15 C 218.25 100.50 216.93 96.95 215.86 93.33 C 218.93 91.33 221.98 89.29 225.03 87.26 C 221.33 86.86 217.60 86.84 213.88 86.94 C 212.55 83.27 211.37 79.54 209.90 75.92 Z" />
</g>
<g id="#10357fff">
<path fill="#10357f" opacity="1.00" d=" M 31.44 1.59 C 38.22 0.37 45.16 0.59 52.02 0.64 C 125.00 0.47 197.99 0.72 270.97 0.55 C 278.97 0.51 287.16 2.52 293.68 7.29 C 302.89 13.72 308.54 24.78 308.48 35.99 C 308.50 114.02 308.50 192.05 308.48 270.07 C 308.72 285.39 297.78 299.95 282.99 303.95 C 277.18 305.68 271.04 305.29 265.05 305.32 C 191.70 305.32 118.35 305.31 45.00 305.33 C 37.92 305.49 30.53 305.25 24.09 301.95 C 11.94 296.37 3.59 283.42 3.89 270.00 C 3.87 192.02 3.87 114.04 3.89 36.06 C 3.45 19.94 15.73 4.83 31.44 1.59 M 36.25 16.40 C 26.77 17.49 19.21 26.54 19.66 36.05 C 19.68 114.04 19.64 192.04 19.69 270.03 C 19.48 280.29 28.76 289.37 38.98 289.11 C 116.98 289.16 194.99 289.13 272.99 289.12 C 283.35 289.58 292.80 280.42 292.64 270.05 C 292.67 191.69 292.69 113.33 292.63 34.97 C 292.65 24.74 283.30 15.77 273.08 16.21 C 197.39 16.19 121.69 16.21 46.00 16.20 C 42.75 16.22 39.48 16.05 36.25 16.40 Z" />
<path fill="#10357f" opacity="1.00" d=" M 391.88 1.14 C 415.24 1.18 438.59 1.15 461.95 1.16 C 477.97 1.23 494.08 0.62 510.00 2.95 C 531.97 5.86 554.02 13.33 570.91 28.12 C 585.55 40.55 594.55 58.90 596.59 77.89 C 598.15 93.99 597.09 110.68 590.95 125.79 C 585.17 140.37 574.81 152.97 561.94 161.88 C 546.03 173.00 527.05 178.93 508.02 181.86 C 487.54 185.05 466.76 184.11 446.13 184.22 C 446.03 212.47 446.17 240.72 446.06 268.97 C 446.15 278.39 440.11 287.81 431.10 290.92 C 418.00 295.66 404.99 300.64 391.86 305.26 C 391.83 203.89 391.78 102.51 391.88 1.14 M 446.08 46.62 C 446.15 77.35 446.03 108.07 446.14 138.80 C 464.77 138.28 483.62 140.08 502.06 136.58 C 513.91 134.26 526.00 129.37 533.69 119.65 C 541.75 109.46 543.15 95.60 541.54 83.10 C 540.16 71.79 533.53 61.04 523.44 55.52 C 510.55 48.41 495.48 46.80 480.99 46.64 C 469.35 46.56 457.72 46.60 446.08 46.62 Z" />
<path fill="#10357f" opacity="1.00" d=" M 631.02 0.86 C 640.34 0.41 649.68 0.56 659.00 0.69 C 664.72 0.75 670.94 -0.22 676.13 2.80 C 682.07 6.07 686.17 11.62 690.00 17.04 C 736.84 80.98 783.78 144.86 830.56 208.84 C 831.70 206.38 831.20 203.59 831.31 200.97 C 831.25 134.32 831.32 67.67 831.27 1.01 C 840.49 -0.01 849.79 0.90 859.05 0.60 C 866.90 0.93 874.79 0.10 882.61 1.09 C 882.51 101.68 882.52 202.28 882.61 302.87 C 873.40 303.04 864.18 302.90 854.97 302.96 C 849.01 303.09 842.76 301.76 838.05 297.94 C 834.34 295.21 831.98 291.20 829.27 287.57 C 780.23 220.66 731.33 153.65 682.22 86.79 C 682.16 158.85 682.23 230.90 682.19 302.95 C 665.13 302.95 648.08 302.95 631.02 302.95 C 631.01 202.25 631.02 101.56 631.02 0.86 Z" />
<path fill="#10357f" opacity="1.00" d=" M 934.28 1.08 C 940.46 -0.29 946.76 0.96 953.01 0.72 C 976.02 0.45 999.03 0.58 1022.03 0.80 C 1037.23 1.16 1052.52 2.64 1067.18 6.84 C 1080.58 10.60 1093.61 16.64 1104.07 25.97 C 1128.74 47.81 1135.09 87.33 1118.97 115.97 C 1112.55 127.55 1101.65 135.89 1090.00 141.74 C 1100.97 146.42 1111.71 152.18 1120.21 160.71 C 1131.91 172.03 1138.70 187.78 1140.54 203.83 C 1142.76 222.60 1139.53 242.38 1129.72 258.70 C 1122.24 271.30 1110.68 281.09 1097.75 287.78 C 1075.97 298.89 1051.15 302.03 1027.00 302.80 C 996.10 303.09 965.19 302.95 934.28 302.89 C 934.36 202.28 934.37 101.68 934.28 1.08 M 987.54 45.00 C 987.51 71.01 987.51 97.03 987.54 123.05 C 1007.41 122.55 1028.00 125.08 1047.12 118.27 C 1058.22 114.49 1068.65 106.24 1071.67 94.48 C 1074.24 84.15 1073.82 72.32 1067.85 63.20 C 1061.85 54.18 1051.24 49.76 1041.04 47.49 C 1023.46 43.74 1005.36 45.37 987.54 45.00 M 987.05 166.58 C 987.13 197.41 987.07 228.24 987.09 259.08 C 1000.05 259.07 1013.02 259.21 1025.98 258.99 C 1040.47 258.32 1055.56 256.70 1068.35 249.31 C 1077.20 244.03 1084.33 235.37 1086.28 225.08 C 1088.77 211.94 1087.08 197.17 1078.51 186.46 C 1071.74 177.75 1061.22 173.09 1050.83 170.30 C 1030.01 164.89 1008.31 166.92 987.05 166.58 Z" />
<path fill="#10357f" opacity="1.00" d=" M 146.56 33.70 C 150.43 31.19 153.26 27.54 156.30 24.17 C 163.66 34.61 175.81 40.64 188.04 43.32 C 199.47 45.87 211.31 45.14 222.81 43.48 C 224.94 50.93 229.93 57.40 236.45 61.54 C 248.11 69.17 262.33 71.72 276.06 72.02 C 268.29 84.21 263.91 98.54 263.86 113.02 C 263.75 151.01 263.89 189.00 263.79 226.99 C 263.71 235.79 262.69 245.56 256.15 252.13 C 249.27 259.26 238.99 260.48 229.86 262.80 C 208.51 267.82 187.19 272.95 165.80 277.82 C 161.79 278.63 158.33 281.24 156.18 284.69 C 153.74 281.73 150.67 279.13 146.85 278.24 C 122.21 272.20 97.53 266.35 72.82 260.59 C 66.42 259.10 59.89 256.64 55.37 251.67 C 49.18 245.11 48.23 235.62 48.15 227.02 C 48.08 190.34 48.14 153.66 48.13 116.99 C 48.39 101.35 45.03 85.24 36.22 72.12 C 50.74 71.51 66.08 69.06 77.95 60.06 C 83.59 55.93 87.43 49.85 89.76 43.34 C 108.93 46.86 130.27 45.32 146.56 33.70 M 100.02 58.27 C 97.23 65.39 92.45 71.84 85.80 75.78 C 77.66 80.63 68.25 82.75 59.07 84.68 C 64.61 96.55 64.37 109.89 64.28 122.68 C 82.93 122.68 101.58 122.60 120.23 122.72 C 122.78 111.82 130.08 102.11 140.19 97.16 C 152.55 90.78 168.42 92.00 179.57 100.36 C 187.02 105.71 192.06 113.89 194.35 122.71 C 212.85 122.55 231.37 122.82 249.87 122.58 L 250.29 122.15 C 250.40 109.59 249.97 96.46 255.50 84.82 C 246.47 83.36 237.45 80.87 229.27 76.70 C 221.78 72.86 216.64 65.89 213.35 58.32 C 193.77 63.06 172.91 56.91 156.95 45.21 C 140.78 56.81 119.73 63.21 100.02 58.27 M 150.01 102.26 C 150.96 105.42 151.76 108.62 152.55 111.82 C 150.15 112.52 147.87 113.57 145.70 114.81 C 144.08 111.92 142.38 109.07 140.82 106.15 C 137.87 106.13 134.92 106.14 131.97 106.12 C 131.94 109.08 131.94 112.03 131.95 114.99 C 134.84 116.59 137.71 118.24 140.59 119.87 C 139.51 122.16 138.53 124.50 137.66 126.87 C 134.54 126.07 131.49 124.99 128.33 124.37 C 125.86 126.07 123.95 128.46 121.72 130.46 C 123.48 132.67 125.30 134.87 127.55 136.61 C 130.83 136.43 133.94 135.06 137.13 134.32 C 137.97 136.59 139.01 138.79 139.90 141.05 C 137.59 143.30 134.33 144.38 131.59 146.08 C 131.56 149.03 131.55 151.99 131.59 154.95 C 134.57 154.84 137.63 155.28 140.55 154.61 C 142.29 151.90 143.71 149.00 145.37 146.25 C 147.58 147.41 149.88 148.38 152.24 149.21 C 151.42 152.51 150.60 155.82 149.62 159.09 C 151.72 161.03 153.37 163.71 155.99 164.95 C 158.05 163.10 160.44 161.33 161.74 158.86 C 161.29 155.65 160.35 152.53 159.72 149.35 C 162.14 148.57 164.47 147.52 166.69 146.27 C 168.26 149.06 169.66 151.95 171.41 154.63 C 174.33 155.25 177.37 154.86 180.34 154.95 C 180.38 151.97 180.40 149.00 180.35 146.03 C 177.44 144.51 174.62 142.82 171.78 141.19 C 172.82 138.89 173.82 136.57 174.74 134.21 C 178.04 135.10 181.35 135.98 184.64 136.90 C 186.68 134.85 188.71 132.81 190.75 130.78 C 188.72 128.60 186.59 126.51 184.35 124.55 C 181.34 125.57 178.26 126.38 175.19 127.20 C 174.35 124.79 173.34 122.45 172.13 120.21 C 175.00 118.66 177.86 117.07 180.71 115.48 C 180.78 112.48 180.78 109.49 180.73 106.49 C 177.81 106.64 174.78 106.13 171.94 106.83 C 170.07 109.44 168.69 112.37 167.04 115.13 C 164.79 114.10 162.49 113.17 160.14 112.39 C 160.86 109.14 161.71 105.92 162.72 102.75 C 160.59 100.50 158.38 98.33 156.15 96.17 C 154.11 98.21 152.07 100.25 150.01 102.26 M 63.39 138.42 C 63.53 165.97 63.44 193.51 63.44 221.05 C 63.50 226.36 63.06 231.89 65.06 236.93 C 66.47 240.60 69.75 243.23 73.39 244.52 C 81.71 247.60 90.52 248.92 99.08 251.17 C 115.51 254.99 131.88 259.15 148.38 262.69 C 148.53 231.06 148.38 199.42 148.45 167.79 C 143.37 166.12 138.25 164.26 133.97 160.95 C 126.48 155.63 121.31 147.45 119.23 138.54 C 100.62 138.27 82.00 138.52 63.39 138.42 M 193.14 138.10 C 190.20 152.42 178.51 164.23 164.24 167.36 C 164.38 199.13 163.97 230.91 164.45 262.67 C 187.81 256.49 211.53 251.78 234.90 245.63 C 239.26 244.37 243.94 242.58 246.49 238.57 C 249.20 234.25 249.17 228.96 249.23 224.04 C 249.17 195.38 249.29 166.72 249.18 138.06 C 230.50 138.10 211.82 138.02 193.14 138.10 Z" />
<path fill="#10357f" opacity="1.00" d=" M 90.88 159.84 C 94.32 158.96 97.81 158.25 101.03 156.67 C 104.02 156.62 107.80 155.76 110.26 157.79 C 112.31 162.66 112.47 168.10 113.09 173.30 C 121.31 173.45 129.54 173.39 137.76 173.34 C 137.55 176.47 137.23 179.60 136.80 182.71 C 131.15 182.80 125.47 182.64 119.84 183.19 L 119.54 184.20 C 124.90 185.80 130.60 185.80 136.06 186.99 C 135.15 189.73 134.12 192.43 133.06 195.11 C 128.43 194.35 123.88 193.17 119.27 192.31 C 119.28 192.62 119.31 193.25 119.33 193.57 C 123.02 195.99 127.34 197.31 130.91 199.94 C 129.45 202.43 127.56 204.61 125.72 206.81 C 122.82 204.63 119.96 202.36 116.69 200.76 C 118.06 203.98 120.22 206.76 122.04 209.73 C 119.04 211.55 121.80 214.01 123.14 215.94 C 123.76 216.62 124.25 217.63 125.28 217.73 C 126.17 216.40 126.91 214.97 127.82 213.64 C 129.41 213.27 131.06 213.33 132.68 213.23 C 133.72 216.90 134.18 220.88 131.53 224.01 C 131.28 222.55 131.02 221.10 130.76 219.65 C 128.09 220.76 126.78 223.53 125.63 226.01 C 125.64 227.95 127.76 227.93 129.10 228.54 C 127.87 229.50 126.78 231.00 125.02 230.81 C 123.52 229.57 122.53 227.84 121.45 226.25 C 121.83 224.91 122.11 223.55 122.28 222.17 C 120.62 219.25 118.46 216.64 116.60 213.85 C 115.32 214.85 113.22 215.27 112.70 216.95 C 115.07 223.12 118.56 228.82 120.87 235.02 C 119.46 236.97 117.02 237.78 115.04 239.04 C 112.93 234.07 111.16 228.97 109.21 223.94 C 108.99 230.03 110.77 235.92 111.07 241.98 C 109.06 243.21 107.04 244.43 105.01 245.65 C 103.00 244.40 101.00 243.16 98.98 241.94 C 99.50 236.21 100.85 230.56 100.81 224.79 C 98.68 229.55 97.41 234.65 95.23 239.40 C 93.21 238.13 91.22 236.84 89.24 235.52 C 92.19 229.35 95.41 223.27 97.85 216.87 C 96.73 215.76 95.31 215.04 94.00 214.21 C 92.24 216.69 90.23 219.01 88.71 221.66 C 87.38 223.66 89.66 226.20 88.16 228.15 C 87.14 229.56 86.11 231.80 84.00 231.47 C 83.18 230.86 82.41 230.21 81.68 229.50 C 82.67 228.70 84.47 228.50 84.81 227.07 C 83.98 224.53 82.23 222.42 80.19 220.74 C 79.60 222.15 79.02 223.58 78.43 225.00 C 76.43 221.74 76.70 218.02 77.69 214.49 C 79.38 214.65 81.19 214.31 82.78 214.99 C 83.77 216.35 84.55 217.84 85.39 219.29 C 87.07 217.26 88.73 215.21 90.12 212.97 C 89.68 212.44 88.80 211.37 88.37 210.84 C 90.35 207.91 92.37 204.99 94.01 201.84 C 90.74 203.08 87.78 204.96 84.82 206.80 C 82.86 204.65 81.06 202.36 79.44 199.95 C 83.37 197.33 88.24 196.11 91.56 192.63 C 86.92 192.80 82.54 194.55 77.95 195.03 C 75.78 193.17 75.82 189.58 74.83 186.94 C 79.55 186.10 84.35 185.75 89.07 184.88 C 90.14 184.69 90.99 184.14 91.62 183.21 C 85.80 182.74 79.95 182.77 74.11 182.70 C 73.30 179.42 72.86 176.07 72.52 172.72 C 80.90 172.60 89.27 172.68 97.65 172.69 C 97.85 171.18 98.05 169.67 98.27 168.16 C 96.26 167.70 94.05 167.33 92.78 165.53 C 94.40 165.37 96.02 165.21 97.64 165.03 C 95.28 163.08 91.86 163.96 89.03 163.43 C 89.58 162.19 90.20 161.00 90.88 159.84 Z" />
<path fill="#10357f" opacity="1.00" d=" M 198.02 157.21 C 203.61 157.54 209.26 156.82 214.82 157.54 C 217.57 158.81 221.29 158.18 223.23 160.85 C 224.66 163.37 228.91 161.08 229.91 163.92 C 229.96 165.94 229.21 167.85 228.73 169.77 C 225.84 169.89 222.96 170.00 220.08 170.23 C 219.93 171.55 219.75 172.86 219.56 174.18 C 222.09 174.19 224.63 174.20 227.17 174.21 C 226.64 176.36 226.12 178.52 225.63 180.68 C 223.09 180.01 220.46 179.86 217.86 180.14 C 218.47 184.72 223.13 186.81 226.90 188.39 C 228.47 187.45 230.10 186.59 231.57 185.50 C 232.10 183.69 231.86 181.76 231.95 179.90 C 233.41 178.79 234.95 177.77 236.57 176.90 C 236.55 180.83 236.50 184.76 236.56 188.69 C 234.01 190.74 231.52 192.87 228.91 194.86 C 226.82 196.95 224.10 194.48 221.85 193.93 C 221.97 195.74 222.08 197.55 222.19 199.36 C 226.14 199.83 230.11 200.21 234.03 200.93 C 235.89 201.03 236.96 202.74 237.87 204.16 C 237.55 205.33 236.97 206.42 236.23 207.38 C 233.47 207.99 230.61 207.86 227.81 208.04 C 227.64 207.54 227.29 206.54 227.12 206.04 C 224.47 206.07 221.81 206.08 219.15 206.08 C 217.74 208.20 216.40 210.37 215.06 212.53 C 217.79 212.57 220.52 212.70 223.25 212.96 C 223.53 215.88 222.52 218.66 221.64 221.39 C 223.11 221.43 224.59 221.47 226.07 221.51 C 227.09 220.23 228.11 218.95 229.12 217.67 C 230.88 217.59 232.63 217.49 234.39 217.39 C 232.80 221.13 231.02 224.79 229.14 228.40 C 223.73 228.40 218.32 228.42 212.92 228.37 C 213.06 226.28 213.21 224.19 213.28 222.09 C 209.97 222.00 206.53 221.36 203.30 222.24 C 200.79 224.98 198.85 228.18 196.55 231.08 C 197.58 233.18 198.65 235.25 199.76 237.32 C 201.97 237.38 204.19 237.46 206.40 237.51 C 207.47 239.80 208.34 242.19 208.98 244.64 C 203.80 244.49 198.62 244.54 193.45 244.53 C 190.38 240.34 187.18 236.25 184.08 232.09 C 186.04 230.02 187.98 227.75 188.67 224.91 C 187.95 220.76 185.98 216.91 185.18 212.77 C 181.13 211.91 176.66 210.21 175.00 206.06 C 172.70 200.41 175.25 194.26 178.78 189.74 C 181.15 186.71 183.21 181.54 179.41 178.74 C 177.44 177.61 177.60 175.40 177.56 173.43 C 179.34 173.43 181.13 173.35 182.91 173.58 C 187.46 177.33 187.54 184.14 185.16 189.13 C 183.44 193.59 178.82 197.47 180.43 202.69 C 181.09 205.68 184.15 206.76 186.86 207.06 C 188.66 204.79 191.26 203.39 193.33 201.42 C 195.11 198.14 197.48 194.70 197.01 190.79 C 195.84 192.09 194.72 193.41 193.60 194.75 C 192.75 193.21 191.67 191.72 191.34 189.96 C 192.79 187.71 194.56 185.67 195.80 183.28 C 193.77 184.17 191.83 185.25 190.13 186.67 C 189.71 184.42 189.25 182.18 188.82 179.93 C 191.67 177.49 195.71 175.97 197.14 172.25 C 194.76 173.42 192.36 174.55 189.87 175.43 C 190.46 172.96 190.74 170.30 192.12 168.11 C 194.34 165.29 197.36 163.23 199.70 160.52 C 199.24 159.37 198.60 158.30 198.02 157.21 Z" />
</g>
<g id="#fdb913ff">
<path fill="#fdb913" opacity="1.00" d=" M 152.83 67.95 C 153.78 64.50 154.83 61.06 156.34 57.81 C 157.47 61.14 158.48 64.50 159.43 67.88 C 163.30 68.05 167.18 68.04 171.04 68.32 C 167.96 70.49 164.92 72.71 161.98 75.06 C 163.10 78.45 164.20 81.86 165.10 85.32 C 162.01 83.43 159.08 81.30 156.10 79.26 C 153.10 81.39 150.12 83.56 147.16 85.75 C 148.03 82.09 149.20 78.52 150.37 74.95 C 147.35 72.76 144.35 70.52 141.51 68.10 C 145.28 68.10 149.06 68.07 152.83 67.95 Z" />
<path fill="#fdb913" opacity="1.00" d=" M 101.75 76.04 C 103.38 79.49 104.57 83.11 105.59 86.78 C 109.21 86.92 112.83 86.96 116.45 87.04 C 113.75 89.32 110.87 91.37 107.86 93.23 C 108.81 96.94 110.20 100.51 111.24 104.19 C 108.04 102.27 105.27 99.71 101.98 97.95 C 98.78 99.77 96.08 102.34 92.93 104.25 C 93.95 100.58 95.12 96.95 96.09 93.27 C 93.10 91.35 90.21 89.29 87.45 87.06 C 91.16 86.94 94.88 86.91 98.60 86.84 C 99.65 83.24 100.70 79.64 101.75 76.04 Z" />
<path fill="#fdb913" opacity="1.00" d=" M 209.90 75.92 C 211.37 79.54 212.55 83.27 213.88 86.94 C 217.60 86.84 221.33 86.86 225.03 87.26 C 221.98 89.29 218.93 91.33 215.86 93.33 C 216.93 96.95 218.25 100.50 219.23 104.15 C 216.09 102.12 213.08 99.90 210.04 97.73 C 207.06 99.93 204.13 102.22 201.02 104.25 C 202.05 100.66 203.31 97.14 204.66 93.66 C 201.68 91.37 198.49 89.36 195.52 87.07 C 199.22 86.92 202.92 86.91 206.63 86.85 C 207.69 83.20 208.78 79.56 209.90 75.92 Z" />
<path fill="#fdb913" opacity="1.00" d=" M 150.01 102.26 C 152.07 100.25 154.11 98.21 156.15 96.17 C 158.38 98.33 160.59 100.50 162.72 102.75 C 161.71 105.92 160.86 109.14 160.14 112.39 C 162.49 113.17 164.79 114.10 167.04 115.13 C 168.69 112.37 170.07 109.44 171.94 106.83 C 174.78 106.13 177.81 106.64 180.73 106.49 C 180.78 109.49 180.78 112.48 180.71 115.48 C 177.86 117.07 175.00 118.66 172.13 120.21 C 173.34 122.45 174.35 124.79 175.19 127.20 C 178.26 126.38 181.34 125.57 184.35 124.55 C 186.59 126.51 188.72 128.60 190.75 130.78 C 188.71 132.81 186.68 134.85 184.64 136.90 C 181.35 135.98 178.04 135.10 174.74 134.21 C 173.82 136.57 172.82 138.89 171.78 141.19 C 174.62 142.82 177.44 144.51 180.35 146.03 C 180.40 149.00 180.38 151.97 180.34 154.95 C 177.37 154.86 174.33 155.25 171.41 154.63 C 169.66 151.95 168.26 149.06 166.69 146.27 C 164.47 147.52 162.14 148.57 159.72 149.35 C 160.35 152.53 161.29 155.65 161.74 158.86 C 160.44 161.33 158.05 163.10 155.99 164.95 C 153.37 163.71 151.72 161.03 149.62 159.09 C 150.60 155.82 151.42 152.51 152.24 149.21 C 149.88 148.38 147.58 147.41 145.37 146.25 C 143.71 149.00 142.29 151.90 140.55 154.61 C 137.63 155.28 134.57 154.84 131.59 154.95 C 131.55 151.99 131.56 149.03 131.59 146.08 C 134.33 144.38 137.59 143.30 139.90 141.05 C 139.01 138.79 137.97 136.59 137.13 134.32 C 133.94 135.06 130.83 136.43 127.55 136.61 C 125.30 134.87 123.48 132.67 121.72 130.46 C 123.95 128.46 125.86 126.07 128.33 124.37 C 131.49 124.99 134.54 126.07 137.66 126.87 C 138.53 124.50 139.51 122.16 140.59 119.87 C 137.71 118.24 134.84 116.59 131.95 114.99 C 131.94 112.03 131.94 109.08 131.97 106.12 C 134.92 106.14 137.87 106.13 140.82 106.15 C 142.38 109.07 144.08 111.92 145.70 114.81 C 147.87 113.57 150.15 112.52 152.55 111.82 C 151.76 108.62 150.96 105.42 150.01 102.26 Z" />
</g>
<g id="#00aeefff">
<path fill="#00aeef" opacity="1.00" d=" M 63.39 138.42 C 82.00 138.52 100.62 138.27 119.23 138.54 C 121.31 147.45 126.48 155.63 133.97 160.95 C 138.25 164.26 143.37 166.12 148.45 167.79 C 148.38 199.42 148.53 231.06 148.38 262.69 C 131.88 259.15 115.51 254.99 99.08 251.17 C 90.52 248.92 81.71 247.60 73.39 244.52 C 69.75 243.23 66.47 240.60 65.06 236.93 C 63.06 231.89 63.50 226.36 63.44 221.05 C 63.44 193.51 63.53 165.97 63.39 138.42 M 90.88 159.84 C 90.20 161.00 89.58 162.19 89.03 163.43 C 91.86 163.96 95.28 163.08 97.64 165.03 C 96.02 165.21 94.40 165.37 92.78 165.53 C 94.05 167.33 96.26 167.70 98.27 168.16 C 98.05 169.67 97.85 171.18 97.65 172.69 C 89.27 172.68 80.90 172.60 72.52 172.72 C 72.86 176.07 73.30 179.42 74.11 182.70 C 79.95 182.77 85.80 182.74 91.62 183.21 C 90.99 184.14 90.14 184.69 89.07 184.88 C 84.35 185.75 79.55 186.10 74.83 186.94 C 75.82 189.58 75.78 193.17 77.95 195.03 C 82.54 194.55 86.92 192.80 91.56 192.63 C 88.24 196.11 83.37 197.33 79.44 199.95 C 81.06 202.36 82.86 204.65 84.82 206.80 C 87.78 204.96 90.74 203.08 94.01 201.84 C 92.37 204.99 90.35 207.91 88.37 210.84 C 88.80 211.37 89.68 212.44 90.12 212.97 C 88.73 215.21 87.07 217.26 85.39 219.29 C 84.55 217.84 83.77 216.35 82.78 214.99 C 81.19 214.31 79.38 214.65 77.69 214.49 C 76.70 218.02 76.43 221.74 78.43 225.00 C 79.02 223.58 79.60 222.15 80.19 220.74 C 82.23 222.42 83.98 224.53 84.81 227.07 C 84.47 228.50 82.67 228.70 81.68 229.50 C 82.41 230.21 83.18 230.86 84.00 231.47 C 86.11 231.80 87.14 229.56 88.16 228.15 C 89.66 226.20 87.38 223.66 88.71 221.66 C 90.23 219.01 92.24 216.69 94.00 214.21 C 95.31 215.04 96.73 215.76 97.85 216.87 C 95.41 223.27 92.19 229.35 89.24 235.52 C 91.22 236.84 93.21 238.13 95.23 239.40 C 97.41 234.65 98.68 229.55 100.81 224.79 C 100.85 230.56 99.50 236.21 98.98 241.94 C 101.00 243.16 103.00 244.40 105.01 245.65 C 107.04 244.43 109.06 243.21 111.07 241.98 C 110.77 235.92 108.99 230.03 109.21 223.94 C 111.16 228.97 112.93 234.07 115.04 239.04 C 117.02 237.78 119.46 236.97 120.87 235.02 C 118.56 228.82 115.07 223.12 112.70 216.95 C 113.22 215.27 115.32 214.85 116.60 213.85 C 118.46 216.64 120.62 219.25 122.28 222.17 C 122.11 223.55 121.83 224.91 121.45 226.25 C 122.53 227.84 123.52 229.57 125.02 230.81 C 126.78 231.00 127.87 229.50 129.10 228.54 C 127.76 227.93 125.64 227.95 125.63 226.01 C 126.78 223.53 128.09 220.76 130.76 219.65 C 131.02 221.10 131.28 222.55 131.53 224.01 C 134.18 220.88 133.72 216.90 132.68 213.23 C 131.06 213.33 129.41 213.27 127.82 213.64 C 126.91 214.97 126.17 216.40 125.28 217.73 C 124.25 217.63 123.76 216.62 123.14 215.94 C 121.80 214.01 119.04 211.55 122.04 209.73 C 120.22 206.76 118.06 203.98 116.69 200.76 C 119.96 202.36 122.82 204.63 125.72 206.81 C 127.56 204.61 129.45 202.43 130.91 199.94 C 127.34 197.31 123.02 195.99 119.33 193.57 C 119.31 193.25 119.28 192.62 119.27 192.31 C 123.88 193.17 128.43 194.35 133.06 195.11 C 134.12 192.43 135.15 189.73 136.06 186.99 C 130.60 185.80 124.90 185.80 119.54 184.20 L 119.84 183.19 C 125.47 182.64 131.15 182.80 136.80 182.71 C 137.23 179.60 137.55 176.47 137.76 173.34 C 129.54 173.39 121.31 173.45 113.09 173.30 C 112.47 168.10 112.31 162.66 110.26 157.79 C 107.80 155.76 104.02 156.62 101.03 156.67 C 97.81 158.25 94.32 158.96 90.88 159.84 Z" />
</g>
<g id="#ed1c24ff">
<path fill="#ed1c24" opacity="1.00" d=" M 193.14 138.10 C 211.82 138.02 230.50 138.10 249.18 138.06 C 249.29 166.72 249.17 195.38 249.23 224.04 C 249.17 228.96 249.20 234.25 246.49 238.57 C 243.94 242.58 239.26 244.37 234.90 245.63 C 211.53 251.78 187.81 256.49 164.45 262.67 C 163.97 230.91 164.38 199.13 164.24 167.36 C 178.51 164.23 190.20 152.42 193.14 138.10 M 198.02 157.21 C 198.60 158.30 199.24 159.37 199.70 160.52 C 197.36 163.23 194.34 165.29 192.12 168.11 C 190.74 170.30 190.46 172.96 189.87 175.43 C 192.36 174.55 194.76 173.42 197.14 172.25 C 195.71 175.97 191.67 177.49 188.82 179.93 C 189.25 182.18 189.71 184.42 190.13 186.67 C 191.83 185.25 193.77 184.17 195.80 183.28 C 194.56 185.67 192.79 187.71 191.34 189.96 C 191.67 191.72 192.75 193.21 193.60 194.75 C 194.72 193.41 195.84 192.09 197.01 190.79 C 197.48 194.70 195.11 198.14 193.33 201.42 C 191.26 203.39 188.66 204.79 186.86 207.06 C 184.15 206.76 181.09 205.68 180.43 202.69 C 178.82 197.47 183.44 193.59 185.16 189.13 C 187.54 184.14 187.46 177.33 182.91 173.58 C 181.13 173.35 179.34 173.43 177.56 173.43 C 177.60 175.40 177.44 177.61 179.41 178.74 C 183.21 181.54 181.15 186.71 178.78 189.74 C 175.25 194.26 172.70 200.41 175.00 206.06 C 176.66 210.21 181.13 211.91 185.18 212.77 C 185.98 216.91 187.95 220.76 188.67 224.91 C 187.98 227.75 186.04 230.02 184.08 232.09 C 187.18 236.25 190.38 240.34 193.45 244.53 C 198.62 244.54 203.80 244.49 208.98 244.64 C 208.34 242.19 207.47 239.80 206.40 237.51 C 204.19 237.46 201.97 237.38 199.76 237.32 C 198.65 235.25 197.58 233.18 196.55 231.08 C 198.85 228.18 200.79 224.98 203.30 222.24 C 206.53 221.36 209.97 222.00 213.28 222.09 C 213.21 224.19 213.06 226.28 212.92 228.37 C 218.32 228.42 223.73 228.40 229.14 228.40 C 231.02 224.79 232.80 221.13 234.39 217.39 C 232.63 217.49 230.88 217.59 229.12 217.67 C 228.11 218.95 227.09 220.23 226.07 221.51 C 224.59 221.47 223.11 221.43 221.64 221.39 C 222.52 218.66 223.53 215.88 223.25 212.96 C 220.52 212.70 217.79 212.57 215.06 212.53 C 216.40 210.37 217.74 208.20 219.15 206.08 C 221.81 206.08 224.47 206.07 227.12 206.04 C 227.29 206.54 227.64 207.54 227.81 208.04 C 230.61 207.86 233.47 207.99 236.23 207.38 C 236.97 206.42 237.55 205.33 237.87 204.16 C 236.96 202.74 235.89 201.03 234.03 200.93 C 230.11 200.21 226.14 199.83 222.19 199.36 C 222.08 197.55 221.97 195.74 221.85 193.93 C 224.10 194.48 226.82 196.95 228.91 194.86 C 231.52 192.87 234.01 190.74 236.56 188.69 C 236.50 184.76 236.55 180.83 236.57 176.90 C 234.95 177.77 233.41 178.79 231.95 179.90 C 231.86 181.76 232.10 183.69 231.57 185.50 C 230.10 186.59 228.47 187.45 226.90 188.39 C 223.13 186.81 218.47 184.72 217.86 180.14 C 220.46 179.86 223.09 180.01 225.63 180.68 C 226.12 178.52 226.64 176.36 227.17 174.21 C 224.63 174.20 222.09 174.19 219.56 174.18 C 219.75 172.86 219.93 171.55 220.08 170.23 C 222.96 170.00 225.84 169.89 228.73 169.77 C 229.21 167.85 229.96 165.94 229.91 163.92 C 228.91 161.08 224.66 163.37 223.23 160.85 C 221.29 158.18 217.57 158.81 214.82 157.54 C 209.26 156.82 203.61 157.54 198.02 157.21 Z" />
</g>
</svg>
