<svg xmlns="http://www.w3.org/2000/svg" viewBox="0 0 120 120" role="img" aria-label="Spay logo">
  <rect width="120" height="120" rx="28" fill="#fff7ed"/>
  <path d="M35 45c0-11 9-20 25-20s25 9 25 20v6h8c3 0 5 2 5 5v36c0 3-2 5-5 5H27c-3 0-5-2-5-5V56c0-3 2-5 5-5h8v-6Zm12 6h26v-6c0-6-4-10-13-10s-13 4-13 10v6Z" fill="#f97316"/>
  <path d="M70 57c-4-3-16-4-20 3-5 9 15 10 11 17-2 4-11 3-16-1" fill="none" stroke="#fff" stroke-width="7" stroke-linecap="round"/>
  <text x="60" y="111" text-anchor="middle" font-family="Arial, Helvetica, sans-serif" font-size="11" font-weight="900" fill="#ea580c">SPAY</text>
</svg>
